<?xml version="1.0" encoding="UTF-8"?>
<svg xmlns="http://www.w3.org/2000/svg" xmlns:xlink="http://www.w3.org/1999/xlink" width="705px" height="405px" viewBox="0 0 386 386" fill-opacity=".25" version="1.1">
<g id="surface1">
<path style=" stroke:none;fill-rule:nonzero;fill:rgb(0%,0%,0%);fill-opacity:1;" d="M 206.207031 91.171875 C 206.058594 91.398438 202.679688 92.222656 198.777344 93.046875 C 191.875 94.550781 178.21875 98.675781 176.714844 99.800781 C 176.339844 100.101562 173.113281 101.601562 169.664062 103.179688 C 149.550781 112.183594 127.867188 129.742188 114.285156 148.050781 C 108.804688 155.40625 104.753906 162.082031 105.355469 162.683594 C 105.503906 162.757812 109.933594 158.558594 115.257812 153.304688 C 123.363281 145.351562 139.195312 132.070312 140.699219 132.070312 C 140.921875 132.070312 143.699219 130.417969 146.925781 128.464844 C 163.210938 118.335938 180.242188 112.632812 194.425781 112.558594 C 204.332031 112.558594 210.710938 115.035156 213.859375 120.289062 C 216.335938 124.339844 215.8125 133.496094 212.660156 139.796875 C 212.058594 141 211.609375 142.421875 211.609375 142.949219 C 211.609375 143.472656 211.382812 144.074219 211.085938 144.226562 C 210.710938 144.300781 209.132812 146.476562 207.484375 148.953125 C 205.832031 151.429688 204.332031 153.605469 204.105469 153.828125 C 202.90625 154.957031 201.027344 158.558594 201.40625 158.933594 C 202.003906 159.457031 205.304688 156.457031 216.636719 145.050781 C 226.917969 134.695312 231.042969 129.667969 235.621094 121.5625 C 244.476562 105.953125 242.152344 96.875 228.042969 91.996094 C 224.890625 90.871094 207.183594 90.195312 206.207031 91.171875 Z M 206.207031 91.171875 "/>
<path style=" stroke:none;fill-rule:nonzero;fill:rgb(0%,0%,0%);fill-opacity:1;" d="M 276.367188 120.585938 C 265.261719 133.269531 250.328125 145.574219 236.148438 153.605469 C 210.109375 168.3125 184.296875 172.289062 174.164062 163.132812 C 169.0625 158.632812 168.539062 151.730469 172.363281 141.898438 C 174.617188 136.195312 177.84375 130.71875 181.746094 125.914062 C 185.269531 121.636719 185.421875 119.988281 182.195312 122.539062 C 173.789062 129.066406 156.90625 147.300781 151.878906 155.105469 C 146.027344 164.109375 143.398438 174.164062 145.574219 179.34375 C 146.925781 182.644531 152.027344 186.695312 156.382812 187.972656 C 163.285156 190.074219 181.292969 189.25 189.847656 186.472656 C 191.722656 185.871094 195.777344 184.671875 198.851562 183.769531 C 201.929688 182.871094 205.53125 181.667969 206.882812 181.144531 C 208.15625 180.542969 209.433594 180.09375 209.734375 180.09375 C 210.035156 180.09375 213.035156 178.667969 216.414062 177.015625 C 219.714844 175.289062 223.539062 173.339844 224.742188 172.738281 C 228.117188 171.011719 239.148438 163.734375 244.25 159.90625 C 250.554688 155.105469 267.0625 138.371094 270.589844 133.269531 C 277.644531 122.988281 280.121094 118.785156 279.746094 117.734375 C 279.59375 117.285156 278.09375 118.636719 276.367188 120.585938 Z M 276.367188 120.585938 "/>
<path style=" stroke:none;fill-rule:nonzero;fill:rgb(0%,0%,0%);fill-opacity:1;" d="M 115.558594 212.285156 C 114.960938 212.660156 112.933594 213.183594 111.058594 213.484375 C 100.175781 215.210938 86.144531 227.59375 81.191406 239.75 C 78.566406 246.203125 78.492188 257.683594 80.890625 262.785156 C 83.820312 268.640625 91.023438 273.066406 99.050781 273.667969 C 103.101562 273.96875 105.054688 273.742188 110.308594 271.941406 C 120.0625 268.714844 130.042969 261.136719 130.792969 256.40625 C 131.316406 252.730469 130.71875 252.582031 127.039062 255.582031 C 123.0625 258.808594 114.359375 263.386719 112.109375 263.386719 C 111.207031 263.386719 109.480469 263.761719 108.28125 264.210938 C 103.027344 266.011719 94.625 261.433594 93.347656 256.109375 C 92.824219 254.15625 93.421875 246.277344 94.097656 245.601562 C 94.324219 245.378906 99.5 245.226562 105.578125 245.300781 C 117.285156 245.378906 120.511719 244.851562 126.890625 241.550781 C 130.34375 239.824219 131.019531 239.148438 133.945312 234.796875 C 139.949219 225.71875 136.644531 216.035156 126.515625 212.886719 C 121.9375 211.535156 117.359375 211.234375 115.558594 212.285156 Z M 121.636719 222.941406 C 123.8125 225.117188 123.214844 229.695312 120.363281 232.695312 C 117.511719 235.695312 109.480469 238.699219 103.027344 239.148438 C 97.925781 239.523438 97.550781 239.449219 97.550781 238.097656 C 97.550781 235.921875 102.953125 227.894531 105.953125 225.640625 C 111.734375 221.214844 118.710938 220.015625 121.636719 222.941406 Z M 121.636719 222.941406 "/>
<path style=" stroke:none;fill-rule:nonzero;fill:rgb(0%,0%,0%);fill-opacity:1;" d="M 171.464844 212.511719 C 170.261719 212.960938 168.539062 213.5625 167.785156 213.785156 C 166.738281 214.160156 165.835938 216.261719 164.335938 222.191406 C 162.382812 229.84375 162.308594 229.996094 160.058594 230.21875 C 158.632812 230.371094 157.507812 231.042969 156.980469 232.09375 C 155.40625 235.097656 155.628906 235.921875 157.957031 236.371094 C 160.582031 236.824219 160.660156 237.796875 158.855469 245.378906 C 152.929688 270.363281 153.230469 267.964844 155.929688 270.964844 C 157.957031 273.292969 158.632812 273.515625 162.234375 273.515625 C 169.136719 273.515625 178.59375 268.1875 178.59375 264.363281 C 178.59375 262.1875 177.84375 262.1875 174.390625 264.511719 C 171.238281 266.613281 167.261719 266.988281 165.835938 265.261719 C 164.785156 263.988281 164.710938 264.4375 169.664062 244.625 C 170.488281 241.101562 171.3125 237.796875 171.539062 237.273438 C 171.6875 236.671875 173.414062 236.371094 176.640625 236.371094 C 181.367188 236.371094 181.59375 236.296875 182.71875 234.121094 C 183.394531 232.84375 183.695312 231.496094 183.46875 231.121094 C 183.246094 230.667969 180.992188 230.371094 178.59375 230.371094 C 176.191406 230.371094 174.015625 230.070312 173.789062 229.769531 C 173.566406 229.394531 174.089844 226.46875 174.914062 223.164062 C 175.742188 219.9375 176.714844 216.1875 177.089844 214.835938 C 177.390625 213.484375 177.46875 212.285156 177.242188 212.058594 C 176.640625 211.460938 174.089844 211.683594 171.464844 212.511719 Z M 171.464844 212.511719 "/>
<path style=" stroke:none;fill-rule:nonzero;fill:rgb(0%,0%,0%);fill-opacity:1;" d="M 277.042969 212.660156 C 275.242188 213.183594 273.441406 214.011719 273.140625 214.609375 C 272.015625 216.789062 258.808594 270.890625 259.257812 271.640625 C 259.484375 272.015625 261.734375 272.390625 264.136719 272.390625 C 269.390625 272.390625 269.238281 272.691406 271.640625 262.261719 C 274.566406 249.277344 276.820312 244.851562 282.820312 240.347656 C 286.5 237.5 288.675781 237.273438 291.152344 239.375 C 293.777344 241.699219 293.628906 243.726562 289.574219 260.761719 C 288.824219 264.0625 288.074219 267.964844 288 269.390625 L 287.773438 272.015625 L 292.351562 272.242188 C 295.429688 272.390625 297.152344 272.167969 297.679688 271.492188 C 299.105469 269.613281 303.832031 247.703125 304.433594 240.273438 C 304.808594 235.773438 304.734375 235.546875 302.257812 233.070312 C 300.679688 231.496094 298.578125 230.292969 296.929688 229.996094 C 293.101562 229.242188 286.5 231.496094 281.996094 235.097656 C 279.96875 236.671875 278.09375 237.875 277.867188 237.648438 C 277.71875 237.421875 277.945312 235.996094 278.394531 234.347656 C 278.917969 232.769531 279.59375 230.292969 279.894531 228.867188 C 280.269531 227.441406 280.871094 225.042969 281.246094 223.617188 C 283.722656 214.910156 284.246094 212.734375 283.945312 212.210938 C 283.421875 211.460938 281.019531 211.609375 277.042969 212.660156 Z M 277.042969 212.660156 "/>
<path style=" stroke:none;fill-rule:nonzero;fill:rgb(0%,0%,0%);fill-opacity:1;" d="M 205.304688 229.695312 C 195.925781 231.945312 187.746094 238.625 183.09375 247.929688 C 181.21875 251.753906 180.84375 253.40625 180.84375 257.757812 C 180.84375 264.363281 182.269531 267.363281 187.148438 270.816406 C 192.324219 274.492188 196.976562 274.792969 204.632812 271.941406 C 212.734375 268.863281 220.6875 261.210938 217.6875 259.335938 C 217.3125 259.109375 215.738281 259.933594 214.160156 261.210938 C 206.507812 267.289062 197.351562 268.714844 193.074219 264.4375 C 191.800781 263.160156 190.898438 257.683594 191.574219 254.980469 C 192.023438 253.332031 192.25 253.257812 200.878906 253.257812 C 208.234375 253.179688 210.332031 252.957031 213.183594 251.605469 C 219.339844 248.828125 222.113281 244.851562 222.113281 238.699219 C 222.113281 235.621094 221.738281 234.648438 219.9375 232.769531 C 217.835938 230.667969 212.660156 228.792969 209.582031 228.945312 C 208.832031 229.019531 206.957031 229.320312 205.304688 229.695312 Z M 211.160156 236.824219 C 212.808594 238.472656 212.660156 242.074219 210.859375 243.726562 C 208.308594 246.128906 203.128906 248.230469 198.703125 248.679688 C 194.800781 249.054688 194.351562 248.980469 194.351562 247.703125 C 194.351562 246.203125 197.652344 241.398438 200.578125 238.699219 C 203.65625 235.921875 209.285156 234.871094 211.160156 236.824219 Z M 211.160156 236.824219 "/>
<path style=" stroke:none;fill-rule:nonzero;fill:rgb(0%,0%,0%);fill-opacity:1;" d="M 239.375 231.644531 C 225.265625 237.421875 217.085938 257.382812 224.742188 267.4375 C 227.519531 271.117188 233.144531 273.890625 237.796875 273.890625 C 244.175781 273.890625 254.382812 268.5625 257.382812 263.761719 C 260.160156 259.257812 258.808594 257.308594 255.207031 260.683594 C 251.53125 264.0625 246.351562 266.386719 242.300781 266.386719 C 239.148438 266.386719 238.171875 266.011719 235.921875 263.910156 C 232.246094 260.609375 231.644531 255.734375 234.046875 249.355469 C 235.546875 245.378906 239.300781 240.125 240.648438 240.125 C 240.949219 240.125 241.925781 239.375 242.976562 238.398438 C 244.402344 237.046875 245.601562 236.746094 249.578125 236.746094 C 254.007812 236.746094 254.53125 236.898438 256.183594 239 C 257.234375 240.199219 258.207031 242.375 258.507812 243.652344 C 258.960938 246.277344 259.632812 246.578125 261.960938 245.378906 C 263.761719 244.402344 263.835938 240.574219 262.1875 236.449219 C 259.558594 229.84375 249.277344 227.667969 239.375 231.644531 Z M 239.375 231.644531 "/>
<path style=" stroke:none;fill-rule:nonzero;fill:rgb(0%,0%,0%);fill-opacity:1;" d="M 137.246094 247.328125 C 136.871094 247.777344 136.496094 248.902344 136.421875 249.953125 C 136.195312 251.753906 136.34375 251.753906 142.800781 251.980469 C 147.078125 252.128906 149.851562 251.90625 150.527344 251.304688 C 151.804688 250.253906 151.878906 246.878906 150.679688 246.804688 C 145.652344 246.351562 137.847656 246.652344 137.246094 247.328125 Z M 137.246094 247.328125 "/>
</g>
</svg>
